<svg xmlns="http://www.w3.org/2000/svg" width="47.8" height="47.8" viewBox="0 0 47.8 47.8">
  <g id="arrow" transform="translate(319.9 27.9) rotate(-90)">
    <path id="Path_1" data-name="Path 1" d="M4-272.1A23.9,23.9,0,0,1-19.9-296,23.9,23.9,0,0,1,4-319.9,23.9,23.9,0,0,1,27.9-296,23.9,23.9,0,0,1,4-272.1Zm0-45.2A21.382,21.382,0,0,0-17.3-296,21.382,21.382,0,0,0,4-274.7,21.382,21.382,0,0,0,25.3-296,21.382,21.382,0,0,0,4-317.3Z" fill="#050707"/>
    <path id="Path_2" data-name="Path 2" d="M4.5-282.3-9.2-296,4.5-309.7l1.8,1.9L-5.4-296,6.3-284.2l-1.8,1.9" fill="#050707"/>
    <path id="Path_3" data-name="Path 3" d="M-7.3-297.4h24v2.8h-24Z" fill="#050707"/>
  </g>
</svg>
